<?xml version="1.0" standalone="no"?><!DOCTYPE svg PUBLIC "-//W3C//DTD SVG 1.1//EN" "http://www.w3.org/Graphics/SVG/1.1/DTD/svg11.dtd"><svg width="100%" height="100%" viewBox="0 0 42 42" version="1.1" xmlns="http://www.w3.org/2000/svg" xmlns:xlink="http://www.w3.org/1999/xlink" xml:space="preserve" style="fill-rule:evenodd;clip-rule:evenodd;stroke-linejoin:round;stroke-miterlimit:1.41421;"><g><path d="M26.453,21.49l-0.391,-0.294c0,0 3.026,-2.099 5.436,0.392l-0.424,0.309c0,-0.001 -1.773,-1.953 -4.621,-0.408Z" style="fill:#444;fill-rule:nonzero;"/><path d="M20.286,28.862c0,0 1.042,1.594 2.636,0.179c0,0 0.537,0.016 0.391,0.488c0,0 -1.643,1.48 -3.4,-0.131c-0.002,0 -0.083,-0.569 0.372,-0.536Z" style="fill:#444;fill-rule:nonzero;"/><path d="M24.338,32.441c-1.758,-0.18 -5.337,0.097 -5.337,0.097c0.049,1.628 2.797,1.693 2.797,1.693c2.75,-0.423 2.54,-1.791 2.54,-1.791ZM21.729,33.796c0,0 -1.252,-0.018 -1.272,-0.453c0,0 1.628,-0.074 2.427,-0.027c0,0 0.096,0.367 -1.156,0.48Z" style="fill:#444;fill-rule:nonzero;"/><path d="M28.646,23.451c0.901,0.004 1.494,0.576 1.497,1.447c0.006,0.799 -0.436,1.303 -1.14,1.303c-0.903,0 -1.912,-0.829 -1.902,-1.564c0.009,-0.645 0.719,-1.191 1.545,-1.186Z" style="fill:#444;"/><path d="M14.531,23.536c0.85,-0.005 1.35,0.481 1.359,1.321c0.01,0.85 -0.386,1.256 -1.22,1.26c-0.929,0.003 -1.546,-0.512 -1.571,-1.311c-0.023,-0.752 0.556,-1.266 1.431,-1.271Z" style="fill:#444;"/><path d="M30.325,9.922c-2.489,-3.759 -7.127,-3.563 -7.127,-3.563c0,0 -0.585,-4.345 -1.757,-4.296c-1.171,0.049 -1.904,4.002 -1.904,4.003c0,0 -4.279,1.082 -6.504,2.692c-8.507,6.153 -8.646,17.268 -1.984,24.493c0.983,1.066 2.322,2.11 3.607,2.98c-2.101,-2.685 -4.436,-8.656 -2.232,-12.457c0.396,-0.685 1.287,-2.201 2.099,-2.505c0.977,-0.366 2.087,0.269 2.087,0.269l0.438,-0.146c-0.243,-0.392 -1.659,-0.603 -1.659,-0.603c1.416,-0.896 3.855,-1.79 3.855,-1.79l-0.487,1.073c6.59,1.367 11.275,-5.76 11.275,-5.76c0.392,1.465 1.367,4.443 1.367,4.443c0.536,1.707 0.586,4.1 0.586,4.1c0.536,6.102 -4.345,13.717 -4.345,13.717c7.615,-4.052 7.957,-13.766 7.957,-13.766c0.831,-9.566 -5.272,-12.884 -5.272,-12.884ZM21.427,2.697c0.452,0.012 0.963,2.807 0.963,2.807c-0.585,-0.537 -1.928,-0.964 -1.928,-0.964c0,0 0.513,-1.856 0.965,-1.843ZM20.402,4.991c0.963,0.183 2.16,1.013 2.16,1.013c0.231,0.525 0.341,0.75 0.293,1.721c-0.525,-0.488 -2.697,-1.295 -2.697,-1.295c0.084,-0.841 0.244,-1.439 0.244,-1.439ZM19.633,10.471c0,0 -0.128,-0.562 0.076,-1.208c0,0 1.852,0.927 3.279,1.208c0,0 -1.672,1.207 -3.355,0ZM23.074,10.031c-0.903,-0.269 -3.345,-1.306 -3.345,-1.306c-0.121,-1.27 0.317,-1.855 0.317,-1.855c0.964,0.354 2.857,1.353 2.857,1.353c0.256,0.6 0.17,1.808 0.17,1.808Z" style="fill:#444;fill-rule:nonzero;"/></g></svg>
