<?xml version="1.0" encoding="utf-8"?>
<!-- Generated by IcoMoon.io -->
<!DOCTYPE svg PUBLIC "-//W3C//DTD SVG 1.1//EN" "http://www.w3.org/Graphics/SVG/1.1/DTD/svg11.dtd">
<svg version="1.1" xmlns="http://www.w3.org/2000/svg" xmlns:xlink="http://www.w3.org/1999/xlink" width="42" height="42" viewBox="0 0 42 42">
<path fill="#444444" d="M5.063 27.398l14.133 9.422v-8.414l-7.828-5.227zM3.609 24.023l4.523-3.023-4.523-3.023v6.047zM22.805 36.82l14.133-9.422-6.305-4.219-7.828 5.227v8.414zM21 25.266l6.375-4.266-6.375-4.266-6.375 4.266zM11.367 18.82l7.828-5.227v-8.414l-14.133 9.422zM33.867 21l4.523 3.023v-6.047zM30.633 18.82l6.305-4.219-14.133-9.422v8.414zM42 14.602v12.797q0 0.961-0.797 1.5l-19.195 12.797q-0.492 0.305-1.008 0.305t-1.008-0.305l-19.195-12.797q-0.797-0.539-0.797-1.5v-12.797q0-0.961 0.797-1.5l19.195-12.797q0.492-0.305 1.008-0.305t1.008 0.305l19.195 12.797q0.797 0.539 0.797 1.5z"></path>
</svg>
