<?xml version="1.0" encoding="utf-8"?>
<!-- Generated by IcoMoon.io -->
<!DOCTYPE svg PUBLIC "-//W3C//DTD SVG 1.1//EN" "http://www.w3.org/Graphics/SVG/1.1/DTD/svg11.dtd">
<svg version="1.1" xmlns="http://www.w3.org/2000/svg" xmlns:xlink="http://www.w3.org/1999/xlink" width="45" height="42" viewBox="0 0 45 42">
<path fill="#444444" d="M42 23.25v-19.5q0-0.305-0.223-0.527t-0.527-0.223h-37.5q-0.305 0-0.527 0.223t-0.223 0.527v19.5q0 0.305 0.223 0.527t0.527 0.223h37.5q0.305 0 0.527-0.223t0.223-0.527zM45 3.75v25.5q0 1.547-1.102 2.648t-2.648 1.102h-12.75q0 0.867 0.375 1.816t0.75 1.664 0.375 1.020q0 0.609-0.445 1.055t-1.055 0.445h-12q-0.609 0-1.055-0.445t-0.445-1.055q0-0.328 0.375-1.031t0.75-1.641 0.375-1.828h-12.75q-1.547 0-2.648-1.102t-1.102-2.648v-25.5q0-1.547 1.102-2.648t2.648-1.102h37.5q1.547 0 2.648 1.102t1.102 2.648z"></path>
</svg>
