<?xml version="1.0" encoding="utf-8"?>
<!-- Generated by IcoMoon.io -->
<!DOCTYPE svg PUBLIC "-//W3C//DTD SVG 1.1//EN" "http://www.w3.org/Graphics/SVG/1.1/DTD/svg11.dtd">
<svg version="1.1" xmlns="http://www.w3.org/2000/svg" xmlns:xlink="http://www.w3.org/1999/xlink" width="36" height="42" viewBox="0 0 36 42">
<path fill="#444444" d="M36 21q0 5.883-3.434 10.582t-8.871 6.504q-0.633 0.117-0.926-0.164t-0.293-0.703v-4.945q0-2.273-1.219-3.328 1.336-0.141 2.402-0.422t2.203-0.914 1.898-1.559 1.242-2.461 0.48-3.527q0-2.836-1.852-4.828 0.867-2.133-0.187-4.781-0.656-0.211-1.898 0.258t-2.156 1.031l-0.891 0.562q-2.18-0.609-4.5-0.609t-4.5 0.609q-0.375-0.258-0.996-0.633t-1.957-0.902-2.016-0.316q-1.031 2.648-0.164 4.781-1.852 1.992-1.852 4.828 0 1.992 0.48 3.516t1.23 2.461 1.887 1.57 2.203 0.914 2.402 0.422q-0.937 0.844-1.148 2.414-0.492 0.234-1.055 0.352t-1.336 0.117-1.535-0.504-1.301-1.465q-0.445-0.75-1.137-1.219t-1.16-0.562l-0.469-0.070q-0.492 0-0.68 0.105t-0.117 0.27 0.211 0.328 0.305 0.281l0.164 0.117q0.516 0.234 1.020 0.891t0.738 1.195l0.234 0.539q0.305 0.891 1.031 1.441t1.57 0.703 1.629 0.164 1.301-0.082l0.539-0.094q0 0.891 0.012 2.086t0.012 1.266q0 0.422-0.305 0.703t-0.937 0.164q-5.437-1.805-8.871-6.504t-3.434-10.582q0-4.898 2.414-9.035t6.551-6.551 9.035-2.414 9.035 2.414 6.551 6.551 2.414 9.035z"></path>
</svg>
